# Blender v3.0.0 OBJ File: 'freezy score reel.blend'
# www.blender.org
o Cylinder
v 0.316549 -0.399871 0.142875
v 0.316549 -0.399871 -0.142875
v 0.388478 -0.330431 0.142875
v 0.388478 -0.330431 -0.142875
v 0.445477 -0.248294 0.142875
v 0.445477 -0.248294 -0.142875
v 0.485357 -0.156615 0.142875
v 0.485357 -0.156615 -0.142875
v 0.506585 -0.058917 0.142875
v 0.506585 -0.058917 -0.142875
v 0.508346 0.041045 0.142875
v 0.508346 0.041045 -0.142875
v 0.490570 0.139430 0.142875
v 0.490570 0.139430 -0.142875
v 0.453943 0.232456 0.142875
v 0.453943 0.232456 -0.142875
v 0.399871 0.316549 0.142875
v 0.399871 0.316549 -0.142875
v 0.330431 0.388478 0.142875
v 0.330431 0.388478 -0.142875
v 0.248294 0.445477 0.142875
v 0.248294 0.445477 -0.142875
v 0.156615 0.485357 0.142875
v 0.156615 0.485357 -0.142875
v 0.058917 0.506585 0.142875
v 0.058917 0.506585 -0.142875
v -0.041045 0.508346 0.142875
v -0.041045 0.508346 -0.142875
v -0.139430 0.490570 0.142875
v -0.139430 0.490570 -0.142875
v -0.232456 0.453943 0.142875
v -0.232456 0.453943 -0.142875
v -0.316549 0.399871 0.142875
v -0.316549 0.399871 -0.142875
v -0.388478 0.330432 0.142875
v -0.388478 0.330432 -0.142875
v -0.445477 0.248294 0.142875
v -0.445477 0.248294 -0.142875
v -0.485357 0.156615 0.142875
v -0.485357 0.156615 -0.142875
v -0.506585 0.058917 0.142875
v -0.506585 0.058917 -0.142875
v -0.508346 -0.041045 0.142875
v -0.508346 -0.041045 -0.142875
v -0.490570 -0.139429 0.142875
v -0.490570 -0.139430 -0.142875
v -0.453943 -0.232456 0.142875
v -0.453943 -0.232456 -0.142875
v -0.399871 -0.316549 0.142875
v -0.399871 -0.316549 -0.142875
v -0.330431 -0.388478 0.142875
v -0.330431 -0.388478 -0.142875
v -0.248294 -0.445477 0.142875
v -0.248294 -0.445477 -0.142875
v -0.156615 -0.485357 0.142875
v -0.156615 -0.485357 -0.142875
v -0.058917 -0.506585 0.142875
v -0.058917 -0.506585 -0.142875
v 0.041045 -0.508346 0.142875
v 0.041045 -0.508346 -0.142875
v 0.139430 -0.490570 0.142875
v 0.139430 -0.490570 -0.142875
v 0.232456 -0.453943 0.142875
v 0.232456 -0.453943 -0.142875
v 0.310312 -0.391992 0.142875
v 0.310312 -0.391992 -0.142875
v 0.380824 -0.323921 0.142875
v 0.380824 -0.323921 -0.142875
v 0.436700 -0.243402 0.142875
v 0.436700 -0.243402 -0.142875
v 0.475794 -0.153529 0.142875
v 0.475794 -0.153529 -0.142875
v 0.496604 -0.057756 0.142875
v 0.496604 -0.057756 -0.142875
v 0.498330 0.040237 0.142875
v 0.498330 0.040237 -0.142875
v 0.480905 0.136682 0.142875
v 0.480905 0.136682 -0.142875
v 0.444999 0.227876 0.142875
v 0.444999 0.227876 -0.142875
v 0.391992 0.310312 0.142875
v 0.391992 0.310312 -0.142875
v 0.323921 0.380824 0.142875
v 0.323921 0.380824 -0.142875
v 0.243402 0.436700 0.142875
v 0.243402 0.436700 -0.142875
v 0.153529 0.475794 0.142875
v 0.153529 0.475794 -0.142875
v 0.057756 0.496604 0.142875
v 0.057756 0.496604 -0.142875
v -0.040237 0.498330 0.142875
v -0.040237 0.498330 -0.142875
v -0.136683 0.480905 0.142875
v -0.136683 0.480905 -0.142875
v -0.227876 0.444999 0.142875
v -0.227876 0.444999 -0.142875
v -0.310313 0.391992 0.142875
v -0.310313 0.391992 -0.142875
v -0.380824 0.323921 0.142875
v -0.380824 0.323921 -0.142875
v -0.436700 0.243402 0.142875
v -0.436700 0.243402 -0.142875
v -0.475795 0.153529 0.142875
v -0.475794 0.153529 -0.142875
v -0.496604 0.057756 0.142875
v -0.496604 0.057756 -0.142875
v -0.498330 -0.040236 0.142875
v -0.498330 -0.040236 -0.142875
v -0.480905 -0.136682 0.142875
v -0.480905 -0.136682 -0.142875
v -0.444999 -0.227876 0.142875
v -0.444999 -0.227876 -0.142875
v -0.391992 -0.310312 0.142875
v -0.391992 -0.310312 -0.142875
v -0.323921 -0.380824 0.142875
v -0.323921 -0.380824 -0.142875
v -0.243402 -0.436700 0.142875
v -0.243402 -0.436700 -0.142875
v -0.153529 -0.475794 0.142875
v -0.153529 -0.475794 -0.142875
v -0.057756 -0.496604 0.142875
v -0.057756 -0.496604 -0.142875
v 0.040236 -0.498330 0.142875
v 0.040237 -0.498330 -0.142875
v 0.136682 -0.480905 0.142875
v 0.136682 -0.480905 -0.142875
v 0.227876 -0.444999 0.142875
v 0.227876 -0.444999 -0.142875
vt 0.000101 0.811894
vt 0.999900 0.811894
vt 0.999900 0.843116
vt 0.000101 0.843116
vt 0.999900 0.874339
vt 0.000101 0.874339
vt 0.999900 0.905562
vt 0.000101 0.905562
vt 0.999900 0.936785
vt 0.000102 0.936785
vt 0.999900 0.968008
vt 0.000101 0.968008
vt 0.999900 0.999230
vt 0.000102 0.999231
vt 0.000102 0.000100
vt 0.999900 0.000100
vt 0.999900 0.031323
vt 0.000102 0.031323
vt 0.999899 0.062546
vt 0.000102 0.062546
vt 0.999899 0.093768
vt 0.000101 0.093768
vt 0.999899 0.124991
vt 0.000101 0.124991
vt 0.999899 0.156214
vt 0.000101 0.156214
vt 0.999899 0.187437
vt 0.000101 0.187437
vt 0.999899 0.218660
vt 0.000101 0.218660
vt 0.999898 0.249883
vt 0.000100 0.249883
vt 0.999898 0.281105
vt 0.000100 0.281105
vt 0.999898 0.312328
vt 0.000100 0.312328
vt 0.999898 0.343551
vt 0.000100 0.343551
vt 0.999898 0.374774
vt 0.000100 0.374774
vt 0.999898 0.405997
vt 0.000100 0.405997
vt 0.999898 0.437220
vt 0.000100 0.437219
vt 0.999898 0.468442
vt 0.000100 0.468442
vt 0.999898 0.499665
vt 0.000100 0.499665
vt 0.999898 0.530888
vt 0.000100 0.530888
vt 0.999898 0.562111
vt 0.000100 0.562111
vt 0.999899 0.593334
vt 0.000100 0.593334
vt 0.999899 0.624557
vt 0.000100 0.624557
vt 0.999899 0.655779
vt 0.000100 0.655779
vt 0.999899 0.687002
vt 0.000101 0.687002
vt 0.999899 0.718225
vt 0.000101 0.718225
vt 0.999900 0.749448
vt 0.000101 0.749448
vt 0.999900 0.780671
vt 0.000101 0.780671
vt 0.685002 0.590442
vt 0.685002 0.593771
vt 0.944023 0.593771
vt 0.944023 0.590442
vt 0.685002 0.597101
vt 0.944023 0.597101
vt 0.685002 0.600430
vt 0.944023 0.600430
vt 0.685002 0.603759
vt 0.944023 0.603759
vt 0.685002 0.607089
vt 0.944023 0.607089
vt 0.685002 0.610418
vt 0.944023 0.610418
vt 0.685002 0.503876
vt 0.685002 0.507205
vt 0.944023 0.507205
vt 0.944023 0.503876
vt 0.685002 0.510535
vt 0.944023 0.510535
vt 0.685002 0.513864
vt 0.944023 0.513864
vt 0.685002 0.517194
vt 0.944023 0.517194
vt 0.685002 0.520523
vt 0.944023 0.520523
vt 0.685002 0.523852
vt 0.944023 0.523852
vt 0.685002 0.527182
vt 0.944023 0.527182
vt 0.685002 0.530511
vt 0.944022 0.530511
vt 0.685002 0.533841
vt 0.944022 0.533841
vt 0.685002 0.537170
vt 0.944022 0.537170
vt 0.685002 0.540500
vt 0.944022 0.540500
vt 0.685002 0.543829
vt 0.944022 0.543829
vt 0.685002 0.547159
vt 0.944022 0.547159
vt 0.685002 0.550488
vt 0.944022 0.550488
vt 0.685002 0.553818
vt 0.944022 0.553818
vt 0.685002 0.557147
vt 0.944022 0.557147
vt 0.685002 0.560476
vt 0.944022 0.560476
vt 0.685002 0.563806
vt 0.944022 0.563806
vt 0.685002 0.567136
vt 0.944023 0.567136
vt 0.685002 0.570465
vt 0.944023 0.570465
vt 0.685002 0.573794
vt 0.944023 0.573794
vt 0.685002 0.577124
vt 0.944023 0.577124
vt 0.685002 0.580453
vt 0.944023 0.580453
vt 0.685002 0.583783
vt 0.944023 0.583783
vt 0.685002 0.587112
vt 0.944023 0.587112
vt 0.000101 0.843116
vt 0.000101 0.811894
vt 0.999900 0.811894
vt 0.999900 0.843116
vt 0.000101 0.874339
vt 0.999900 0.874339
vt 0.000101 0.905562
vt 0.999900 0.905562
vt 0.000102 0.936785
vt 0.999900 0.936785
vt 0.000101 0.968008
vt 0.999900 0.968008
vt 0.000102 0.999231
vt 0.999900 0.999230
vt 0.000102 0.031323
vt 0.000102 0.000100
vt 0.999900 0.000100
vt 0.999900 0.031323
vt 0.000102 0.062546
vt 0.999899 0.062546
vt 0.000101 0.093768
vt 0.999899 0.093768
vt 0.000101 0.124991
vt 0.999899 0.124991
vt 0.000101 0.156214
vt 0.999899 0.156214
vt 0.000101 0.187437
vt 0.999899 0.187437
vt 0.000101 0.218660
vt 0.999899 0.218660
vt 0.000100 0.249883
vt 0.999898 0.249883
vt 0.000100 0.281105
vt 0.999898 0.281105
vt 0.000100 0.312328
vt 0.999898 0.312328
vt 0.000100 0.343551
vt 0.999898 0.343551
vt 0.000100 0.374774
vt 0.999898 0.374774
vt 0.000100 0.405997
vt 0.999898 0.405997
vt 0.000100 0.437219
vt 0.999898 0.437220
vt 0.000100 0.468442
vt 0.999898 0.468442
vt 0.000100 0.499665
vt 0.999898 0.499665
vt 0.000100 0.530888
vt 0.999898 0.530888
vt 0.000100 0.562111
vt 0.999898 0.562111
vt 0.000100 0.593334
vt 0.999899 0.593334
vt 0.000100 0.624557
vt 0.999899 0.624557
vt 0.000100 0.655779
vt 0.999899 0.655779
vt 0.000101 0.687002
vt 0.999899 0.687002
vt 0.000101 0.718225
vt 0.999899 0.718225
vt 0.000101 0.749448
vt 0.999900 0.749448
vt 0.000101 0.780671
vt 0.999900 0.780671
vn 0.4518 -0.5707 0.6857
vn 0.4518 -0.5707 -0.6857
vn 0.5544 -0.4716 -0.6857
vn 0.5544 -0.4716 0.6857
vn 0.6358 -0.3544 -0.6857
vn 0.6358 -0.3544 0.6857
vn 0.6927 -0.2235 -0.6857
vn 0.6927 -0.2235 0.6857
vn 0.7230 -0.0841 -0.6857
vn 0.7230 -0.0841 0.6857
vn 0.7255 0.0586 -0.6857
vn 0.7255 0.0586 0.6857
vn 0.7002 0.1990 -0.6857
vn 0.7002 0.1990 0.6857
vn 0.6479 0.3318 -0.6857
vn 0.6479 0.3318 0.6857
vn 0.5707 0.4518 -0.6857
vn 0.5707 0.4518 0.6857
vn 0.4716 0.5544 -0.6857
vn 0.4716 0.5544 0.6857
vn 0.3544 0.6358 -0.6857
vn 0.3544 0.6358 0.6857
vn 0.2235 0.6927 -0.6857
vn 0.2235 0.6927 0.6857
vn 0.0841 0.7230 -0.6857
vn 0.0841 0.7230 0.6857
vn -0.0586 0.7255 -0.6857
vn -0.0586 0.7255 0.6857
vn -0.1990 0.7002 -0.6857
vn -0.1990 0.7002 0.6857
vn -0.3318 0.6479 -0.6857
vn -0.3318 0.6479 0.6857
vn -0.4518 0.5707 -0.6857
vn -0.4518 0.5707 0.6857
vn -0.5544 0.4716 -0.6857
vn -0.5544 0.4716 0.6857
vn -0.6358 0.3544 -0.6857
vn -0.6358 0.3544 0.6857
vn -0.6927 0.2235 -0.6857
vn -0.6927 0.2235 0.6857
vn -0.7230 0.0841 -0.6857
vn -0.7230 0.0841 0.6857
vn -0.7255 -0.0586 -0.6857
vn -0.7255 -0.0586 0.6857
vn -0.7002 -0.1990 -0.6857
vn -0.7002 -0.1990 0.6857
vn -0.6479 -0.3318 -0.6857
vn -0.6479 -0.3318 0.6857
vn -0.5707 -0.4518 -0.6857
vn -0.5707 -0.4518 0.6857
vn -0.4716 -0.5544 -0.6857
vn -0.4716 -0.5544 0.6857
vn -0.3544 -0.6358 -0.6857
vn -0.3544 -0.6358 0.6857
vn -0.2235 -0.6927 -0.6857
vn -0.2235 -0.6927 0.6857
vn -0.0841 -0.7230 -0.6857
vn -0.0841 -0.7230 0.6857
vn 0.0586 -0.7255 -0.6857
vn 0.0586 -0.7255 0.6857
vn 0.1990 -0.7002 -0.6857
vn 0.1990 -0.7002 0.6857
vn 0.3318 -0.6479 -0.6857
vn 0.3318 -0.6479 0.6857
vn -0.4243 0.5360 0.7298
vn -0.5207 0.4429 0.7298
vn -0.5207 0.4429 -0.7298
vn -0.4243 0.5360 -0.7298
vn -0.5971 0.3328 0.7298
vn -0.5971 0.3328 -0.7298
vn -0.6506 0.2099 0.7298
vn -0.6506 0.2099 -0.7298
vn -0.6790 0.0790 0.7298
vn -0.6790 0.0790 -0.7298
vn -0.6814 -0.0550 0.7298
vn -0.6814 -0.0550 -0.7298
vn -0.6576 -0.1869 0.7298
vn -0.6576 -0.1869 -0.7298
vn -0.6084 -0.3116 0.7298
vn -0.6084 -0.3116 -0.7298
vn -0.5360 -0.4243 0.7298
vn -0.5360 -0.4243 -0.7298
vn -0.4429 -0.5207 0.7298
vn -0.4429 -0.5207 -0.7298
vn -0.3328 -0.5971 0.7298
vn -0.3328 -0.5971 -0.7298
vn -0.2099 -0.6506 0.7298
vn -0.2099 -0.6506 -0.7298
vn -0.0790 -0.6790 0.7298
vn -0.0790 -0.6790 -0.7298
vn 0.0550 -0.6814 0.7298
vn 0.0550 -0.6814 -0.7298
vn 0.1869 -0.6576 0.7298
vn 0.1869 -0.6576 -0.7298
vn 0.3116 -0.6084 0.7298
vn 0.3116 -0.6084 -0.7298
vn 0.4243 -0.5360 0.7298
vn 0.4243 -0.5360 -0.7298
vn 0.5207 -0.4429 0.7298
vn 0.5207 -0.4429 -0.7298
vn 0.5971 -0.3328 0.7298
vn 0.5971 -0.3328 -0.7298
vn 0.6506 -0.2099 0.7298
vn 0.6506 -0.2099 -0.7298
vn 0.6790 -0.0790 0.7298
vn 0.6790 -0.0790 -0.7298
vn 0.6814 0.0550 0.7298
vn 0.6814 0.0550 -0.7298
vn 0.6576 0.1869 0.7298
vn 0.6576 0.1869 -0.7298
vn 0.6084 0.3116 0.7298
vn 0.6084 0.3116 -0.7298
vn 0.5360 0.4243 0.7298
vn 0.5360 0.4243 -0.7298
vn 0.4429 0.5207 0.7298
vn 0.4429 0.5207 -0.7298
vn 0.3328 0.5971 0.7298
vn 0.3328 0.5971 -0.7298
vn 0.2099 0.6506 0.7298
vn 0.2099 0.6506 -0.7298
vn 0.0790 0.6790 0.7298
vn 0.0790 0.6790 -0.7298
vn -0.0550 0.6814 0.7298
vn -0.0550 0.6814 -0.7298
vn -0.1869 0.6576 0.7298
vn -0.1869 0.6576 -0.7298
vn -0.3116 0.6084 0.7298
vn -0.3116 0.6084 -0.7298
s 1
f 1/1/1 2/2/2 4/3/3 3/4/4
f 3/4/4 4/3/3 6/5/5 5/6/6
f 5/6/6 6/5/5 8/7/7 7/8/8
f 7/8/8 8/7/7 10/9/9 9/10/10
f 9/10/10 10/9/9 12/11/11 11/12/12
f 11/12/12 12/11/11 14/13/13 13/14/14
f 13/15/14 14/16/13 16/17/15 15/18/16
f 15/18/16 16/17/15 18/19/17 17/20/18
f 17/20/18 18/19/17 20/21/19 19/22/20
f 19/22/20 20/21/19 22/23/21 21/24/22
f 21/24/22 22/23/21 24/25/23 23/26/24
f 23/26/24 24/25/23 26/27/25 25/28/26
f 25/28/26 26/27/25 28/29/27 27/30/28
f 27/30/28 28/29/27 30/31/29 29/32/30
f 29/32/30 30/31/29 32/33/31 31/34/32
f 31/34/32 32/33/31 34/35/33 33/36/34
f 33/36/34 34/35/33 36/37/35 35/38/36
f 35/38/36 36/37/35 38/39/37 37/40/38
f 37/40/38 38/39/37 40/41/39 39/42/40
f 39/42/40 40/41/39 42/43/41 41/44/42
f 41/44/42 42/43/41 44/45/43 43/46/44
f 43/46/44 44/45/43 46/47/45 45/48/46
f 45/48/46 46/47/45 48/49/47 47/50/48
f 47/50/48 48/49/47 50/51/49 49/52/50
f 49/52/50 50/51/49 52/53/51 51/54/52
f 51/54/52 52/53/51 54/55/53 53/56/54
f 53/56/54 54/55/53 56/57/55 55/58/56
f 55/58/56 56/57/55 58/59/57 57/60/58
f 57/60/58 58/59/57 60/61/59 59/62/60
f 59/62/60 60/61/59 62/63/61 61/64/62
f 61/64/62 62/63/61 64/65/63 63/66/64
f 63/66/64 64/65/63 2/2/2 1/1/1
f 65/67/65 67/68/66 68/69/67 66/70/68
f 67/68/66 69/71/69 70/72/70 68/69/67
f 69/71/69 71/73/71 72/74/72 70/72/70
f 71/73/71 73/75/73 74/76/74 72/74/72
f 73/75/73 75/77/75 76/78/76 74/76/74
f 75/77/75 77/79/77 78/80/78 76/78/76
f 77/81/77 79/82/79 80/83/80 78/84/78
f 79/82/79 81/85/81 82/86/82 80/83/80
f 81/85/81 83/87/83 84/88/84 82/86/82
f 83/87/83 85/89/85 86/90/86 84/88/84
f 85/89/85 87/91/87 88/92/88 86/90/86
f 87/91/87 89/93/89 90/94/90 88/92/88
f 89/93/89 91/95/91 92/96/92 90/94/90
f 91/95/91 93/97/93 94/98/94 92/96/92
f 93/97/93 95/99/95 96/100/96 94/98/94
f 95/99/95 97/101/97 98/102/98 96/100/96
f 97/101/97 99/103/99 100/104/100 98/102/98
f 99/103/99 101/105/101 102/106/102 100/104/100
f 101/105/101 103/107/103 104/108/104 102/106/102
f 103/107/103 105/109/105 106/110/106 104/108/104
f 105/109/105 107/111/107 108/112/108 106/110/106
f 107/111/107 109/113/109 110/114/110 108/112/108
f 109/113/109 111/115/111 112/116/112 110/114/110
f 111/115/111 113/117/113 114/118/114 112/116/112
f 113/117/113 115/119/115 116/120/116 114/118/114
f 115/119/115 117/121/117 118/122/118 116/120/116
f 117/121/117 119/123/119 120/124/120 118/122/118
f 119/123/119 121/125/121 122/126/122 120/124/120
f 121/125/121 123/127/123 124/128/124 122/126/122
f 123/127/123 125/129/125 126/130/126 124/128/124
f 125/129/125 127/131/127 128/132/128 126/130/126
f 127/131/127 65/67/65 66/70/68 128/132/128
f 1/1/1 3/4/4 67/133/66 65/134/65
f 4/3/3 2/2/2 66/135/68 68/136/67
f 3/4/4 5/6/6 69/137/69 67/133/66
f 6/5/5 4/3/3 68/136/67 70/138/70
f 5/6/6 7/8/8 71/139/71 69/137/69
f 8/7/7 6/5/5 70/138/70 72/140/72
f 7/8/8 9/10/10 73/141/73 71/139/71
f 10/9/9 8/7/7 72/140/72 74/142/74
f 9/10/10 11/12/12 75/143/75 73/141/73
f 12/11/11 10/9/9 74/142/74 76/144/76
f 11/12/12 13/14/14 77/145/77 75/143/75
f 14/13/13 12/11/11 76/144/76 78/146/78
f 13/15/14 15/18/16 79/147/79 77/148/77
f 16/17/15 14/16/13 78/149/78 80/150/80
f 15/18/16 17/20/18 81/151/81 79/147/79
f 18/19/17 16/17/15 80/150/80 82/152/82
f 17/20/18 19/22/20 83/153/83 81/151/81
f 20/21/19 18/19/17 82/152/82 84/154/84
f 19/22/20 21/24/22 85/155/85 83/153/83
f 22/23/21 20/21/19 84/154/84 86/156/86
f 21/24/22 23/26/24 87/157/87 85/155/85
f 24/25/23 22/23/21 86/156/86 88/158/88
f 23/26/24 25/28/26 89/159/89 87/157/87
f 26/27/25 24/25/23 88/158/88 90/160/90
f 25/28/26 27/30/28 91/161/91 89/159/89
f 28/29/27 26/27/25 90/160/90 92/162/92
f 27/30/28 29/32/30 93/163/93 91/161/91
f 30/31/29 28/29/27 92/162/92 94/164/94
f 29/32/30 31/34/32 95/165/95 93/163/93
f 32/33/31 30/31/29 94/164/94 96/166/96
f 31/34/32 33/36/34 97/167/97 95/165/95
f 34/35/33 32/33/31 96/166/96 98/168/98
f 33/36/34 35/38/36 99/169/99 97/167/97
f 36/37/35 34/35/33 98/168/98 100/170/100
f 35/38/36 37/40/38 101/171/101 99/169/99
f 38/39/37 36/37/35 100/170/100 102/172/102
f 37/40/38 39/42/40 103/173/103 101/171/101
f 40/41/39 38/39/37 102/172/102 104/174/104
f 39/42/40 41/44/42 105/175/105 103/173/103
f 42/43/41 40/41/39 104/174/104 106/176/106
f 41/44/42 43/46/44 107/177/107 105/175/105
f 44/45/43 42/43/41 106/176/106 108/178/108
f 43/46/44 45/48/46 109/179/109 107/177/107
f 46/47/45 44/45/43 108/178/108 110/180/110
f 45/48/46 47/50/48 111/181/111 109/179/109
f 48/49/47 46/47/45 110/180/110 112/182/112
f 47/50/48 49/52/50 113/183/113 111/181/111
f 50/51/49 48/49/47 112/182/112 114/184/114
f 49/52/50 51/54/52 115/185/115 113/183/113
f 52/53/51 50/51/49 114/184/114 116/186/116
f 51/54/52 53/56/54 117/187/117 115/185/115
f 54/55/53 52/53/51 116/186/116 118/188/118
f 53/56/54 55/58/56 119/189/119 117/187/117
f 56/57/55 54/55/53 118/188/118 120/190/120
f 55/58/56 57/60/58 121/191/121 119/189/119
f 58/59/57 56/57/55 120/190/120 122/192/122
f 57/60/58 59/62/60 123/193/123 121/191/121
f 60/61/59 58/59/57 122/192/122 124/194/124
f 59/62/60 61/64/62 125/195/125 123/193/123
f 62/63/61 60/61/59 124/194/124 126/196/126
f 61/64/62 63/66/64 127/197/127 125/195/125
f 64/65/63 62/63/61 126/196/126 128/198/128
f 63/66/64 1/1/1 65/134/65 127/197/127
f 2/2/2 64/65/63 128/198/128 66/135/68
